<svg xmlns="http://www.w3.org/2000/svg" width="64" height="64" viewBox="0 0 200 200" aria-hidden="true" focusable="false"><defs><path id="b-cima" d="M31.200000000000003,100 A68.8,68.8 0 0 1 168.8,100"/><path id="b-baixo" d="M13.599999999999994,100 A86.4,86.4 0 0 0 186.4,100"/></defs><circle cx="100" cy="100" r="98" style="fill:#0b6427"/><circle cx="100" cy="100" r="90" style="fill:none;stroke:#ffffff;stroke-width:6"/><circle cx="100" cy="100" r="58" style="fill:#ffffff"/><path style="fill:#0b6427" d="M87.62,48.50L90.78,56.95L99.79,57.34L92.73,62.96L95.14,71.66L87.62,66.68L80.09,71.66L82.50,62.96L75.44,57.34L84.46,56.95ZM62.16,78.34L65.32,86.79L74.33,87.19L67.27,92.80L69.68,101.50L62.16,96.52L54.64,101.50L57.05,92.80L49.99,87.19L59.00,86.79ZM125.80,70.28L128.76,78.21L137.21,78.58L130.59,83.84L132.85,91.99L125.80,87.32L118.75,91.99L121.01,83.84L114.39,78.58L122.84,78.21ZM122.19,107.09L125.15,115.01L133.60,115.38L126.98,120.65L129.24,128.80L122.19,124.13L115.13,128.80L117.39,120.65L110.78,115.38L119.23,115.01ZM83.14,126.78L85.51,133.12L92.27,133.41L86.98,137.62L88.79,144.14L83.14,140.41L77.50,144.14L79.31,137.62L74.01,133.41L80.77,133.12Z"/></svg>
